<svg id="Laag_1" data-name="Laag 1" xmlns="http://www.w3.org/2000/svg" viewBox="0 0 482.2 195.9"><title>postage-stamp</title><path d="M504,384.5a42.2,42.2,0,0,0,14.4-3.5c3.6-1.7,6.8-4.1,10.2-6.2,12.2-7.3,29.1-7.6,42.8-5.4a49.4,49.4,0,0,1,17,6c4,2.3,7.7,4.9,11.9,6.6,12.8,5.5,28.7,4.6,41.8,1,10.9-3,18.9-10,28.6-15.2a40.4,40.4,0,0,1,40.1,1.5c10.6,6.6,19.2,15.3,32.1,16.5,15.2,1.4,29.1-5.3,42.2-11.9,15.8-7.8,34.1-12.7,50.1-2.7,5.5,3.4,10.1,8,15,12.3,2.8,2.4,6.1,5.2,10.1,5,1.9-.1,1.9-3.1,0-3-4,.2-7.5-3.7-10.2-6.1s-8.2-7.5-12.9-10.5c-12.2-7.8-26.3-7.8-39.8-3.4s-26.6,13.9-41.7,16.5c-8.2,1.5-16.5,1.3-24.2-2.5-5.5-2.6-10.2-6.5-15.1-10-10.8-7.7-22.8-11-36-8.3-10.7,2.1-18.4,9.3-27.7,14.3-13.3,7.2-31.6,9.5-46.2,5.5-9.8-2.6-17.4-9.8-27-12.8s-17.2-2.9-25.8-2.6-14.5,1.1-21.2,3.9c-4.2,1.7-7.8,4.4-11.7,6.8a36.8,36.8,0,0,1-16.8,5.2c-1.9.2-1.9,3.2,0,3Z" transform="translate(-502.1 -306.6)"/><path d="M503.5,421c10.8-.2,18.8-7.9,27.7-13,13.4-7.7,30.1-9.5,44.6-3.6,11.6,4.8,20.8,14.4,33.2,17.7s24.1.7,34.8-4.5c13.4-6.4,25.3-12.9,40.3-14.3,7.6-.8,15.4-.6,22.5,2.2,5.2,2,9.6,5.4,14,8.9,8.8,6.9,17.7,10.2,29.1,9,15-1.7,27.3-8.8,40.3-15.7,6.6-3.6,13.7-6.7,21.4-6.8s16.7,3.5,24.2,6.9,14.2,7,21.5,10c5,2.1,10.5,4.2,16,3.1,1.9-.3,1.1-3.2-.8-2.8-5.8,1.1-12.3-2.2-17.4-4.5s-13-6.3-19.6-9.2c-11.9-5.2-23.8-8.6-36.5-4.1S774.7,414,761.3,418s-26.3,3.8-37.8-5.1c-8.8-6.8-17-12.1-28.5-12.9-14.4-1-28.7,2.9-41.5,9.3s-22.7,12-36.3,11.2-23.4-10.2-35-16.3a53.5,53.5,0,0,0-45.1-2.4c-11.2,4.5-20.9,15.9-33.6,16.2a1.5,1.5,0,0,0,0,3Z" transform="translate(-502.1 -306.6)"/><path d="M523.8,448.4c13.7-2.1,27-9.4,41-9,10.4.4,19.7,7.5,28.8,11.8s19.6,7.4,30.3,5.8,23.2-7.2,34.3-11.8,23.4-9.6,35.3-7.1c9.4,2,17.4,7.8,25.8,12.1s18.8,7.7,29.1,7.3,20.3-3.6,29.7-8.1,18.9-11.6,29.6-12,19.7,1.4,27.5,7.3c1.6,1.2,3.1-1.4,1.6-2.6-13.2-9.9-31.6-9.5-45.9-2.6-9.7,4.7-18.9,10.3-29.4,13a53.7,53.7,0,0,1-37.4-3.3c-8.3-3.8-15.8-9.2-24.4-12.4s-19.3-2.4-28.8.6c-12.8,3.9-24.7,10.4-37.5,14.3s-24.7,3.1-37-2.5c-9.3-4.2-18.6-11.4-29-12.6-15.1-1.8-29.7,6.6-44.4,9-1.9.3-1.1,3.1.8,2.8Z" transform="translate(-502.1 -306.6)"/><path d="M556.8,474.5c9.7.8,18.8,5.9,27.6,9.9s17.9,7.8,27.6,9c21.7,2.7,40.6-11.3,60.7-16.7,10.7-2.9,21.3-2.9,31.7.8,8.5,3,16.2,7.7,24.6,11.1a59.2,59.2,0,0,0,29.1,4.6c8.9-1.1,17.3-4.4,25.4-8.2s17.2-10,26.5-10.5c6.5-.3,15.7.6,21.6,3.8,1.7.9,3.2-1.7,1.5-2.6-4.2-2.2-9.5-2.9-14.1-3.5-8.1-1.1-14.3-.4-21.8,2.9s-17.4,8.9-26.7,12.1a54.4,54.4,0,0,1-32.9,1.2c-18.2-5.1-33-18-52.8-16.8-22.9,1.4-41.8,17.6-64.5,19.1-12.6.8-24.6-4.5-35.8-9.5-8.8-4-17.9-8.9-27.7-9.7-1.9-.2-1.9,2.8,0,3Z" transform="translate(-502.1 -306.6)"/><path d="M773.8,404.5c.3,42.4,29.5,78.5,69,92,41,14.1,89.3,2.8,118.1-30.2,27.5-31.5,31.3-78,8-113.1s-68.4-52.4-110.1-44.9c-46.7,8.4-84.7,47.7-85,96.2a1.5,1.5,0,0,0,3,0c.3-41.5,29.3-76.8,68.1-89.6s85.1-2.2,113,28.9,31.2,75.1,9.2,109.4-67.8,52.3-108.8,44.3c-44.8-8.7-81.2-46.3-81.5-93A1.5,1.5,0,0,0,773.8,404.5Z" transform="translate(-502.1 -306.6)"/><path d="M864.4,333.3c-30.5,5.7-57.1,28.6-62.3,60.1s12.3,60.9,39.8,74.8,64.5,10.9,89.2-9.7,32.6-52.6,20.3-81.1c-14.4-33.4-52-49.9-87-44.1-1.9.3-1.1,3.2.8,2.9,30-5,62.2,7.1,78.7,33.3s12.4,58.1-7.7,80-54.3,30-83.1,20.2-49.3-35.8-48.9-66.1c.5-34.6,28.2-61.3,61-67.4C867.1,335.8,866.3,333,864.4,333.3Z" transform="translate(-502.1 -306.6)"/></svg>